<svg t="1679232358446" class="icon" viewBox="0 0 1024 1024" version="1.1" xmlns="http://www.w3.org/2000/svg" p-id="1361" width="64" height="64"><path d="M511.85664 150.01088c238.49472 0 431.83104 193.33632 431.83104 431.83104 0 238.49472-193.33632 431.82592-431.83104 431.82592V150.01088z" fill="#ED0000" p-id="1362"></path><path d="M511.85664 150.01088c-238.49472 0-431.83104 193.33632-431.83104 431.83104 0 238.49472 193.33632 431.82592 431.83104 431.82592V150.01088z" fill="#EB4E41" p-id="1363"></path><path d="M483.08224 180.77696c-22.95808-49.54624 21.6064-118.9888 99.54304-155.1104 77.93664-36.11648 159.73376-25.23136 182.69184 24.31488L483.08224 180.77696z" fill="#30C03F" p-id="1364"></path><path d="M483.08224 180.77696c22.95808 49.54624 104.7552 60.43136 182.69184 24.31488 77.93664-36.11648 122.50624-105.56416 99.54304-155.1104L483.08224 180.77696z" fill="#97CF43" p-id="1365"></path><path d="M337.45408 351.32928m-28.01152 0a28.01152 28.01152 0 1 0 56.02304 0 28.01152 28.01152 0 1 0-56.02304 0Z" fill="#770000" p-id="1366"></path><path d="M511.85664 351.32928m-28.01152 0a28.01152 28.01152 0 1 0 56.02304 0 28.01152 28.01152 0 1 0-56.02304 0Z" fill="#770000" p-id="1367"></path><path d="M686.26432 351.32928m-28.01152 0a28.01152 28.01152 0 1 0 56.02304 0 28.01152 28.01152 0 1 0-56.02304 0Z" fill="#770000" p-id="1368"></path><path d="M236.20096 466.58048m-28.01152 0a28.01152 28.01152 0 1 0 56.02304 0 28.01152 28.01152 0 1 0-56.02304 0Z" fill="#770000" p-id="1369"></path><path d="M419.97312 466.58048m-28.01152 0a28.01152 28.01152 0 1 0 56.02304 0 28.01152 28.01152 0 1 0-56.02304 0Z" fill="#770000" p-id="1370"></path><path d="M603.74528 466.58048m-28.01152 0a28.01152 28.01152 0 1 0 56.02304 0 28.01152 28.01152 0 1 0-56.02304 0Z" fill="#770000" p-id="1371"></path><path d="M787.51744 466.58048m-28.01152 0a28.01152 28.01152 0 1 0 56.02304 0 28.01152 28.01152 0 1 0-56.02304 0Z" fill="#770000" p-id="1372"></path><path d="M337.45408 581.8368m-28.01152 0a28.01152 28.01152 0 1 0 56.02304 0 28.01152 28.01152 0 1 0-56.02304 0Z" fill="#770000" p-id="1373"></path><path d="M511.85664 581.8368m-28.01152 0a28.01152 28.01152 0 1 0 56.02304 0 28.01152 28.01152 0 1 0-56.02304 0Z" fill="#770000" p-id="1374"></path><path d="M686.26432 581.8368m-28.01152 0a28.01152 28.01152 0 1 0 56.02304 0 28.01152 28.01152 0 1 0-56.02304 0Z" fill="#770000" p-id="1375"></path><path d="M337.45408 812.34944m-28.01152 0a28.01152 28.01152 0 1 0 56.02304 0 28.01152 28.01152 0 1 0-56.02304 0Z" fill="#770000" p-id="1376"></path><path d="M511.85664 812.34944m-28.01152 0a28.01152 28.01152 0 1 0 56.02304 0 28.01152 28.01152 0 1 0-56.02304 0Z" fill="#770000" p-id="1377"></path><path d="M686.26432 812.34944m-28.01152 0a28.01152 28.01152 0 1 0 56.02304 0 28.01152 28.01152 0 1 0-56.02304 0Z" fill="#770000" p-id="1378"></path><path d="M236.20096 697.09312m-28.01152 0a28.01152 28.01152 0 1 0 56.02304 0 28.01152 28.01152 0 1 0-56.02304 0Z" fill="#770000" p-id="1379"></path><path d="M419.97312 697.09312m-28.01152 0a28.01152 28.01152 0 1 0 56.02304 0 28.01152 28.01152 0 1 0-56.02304 0Z" fill="#770000" p-id="1380"></path><path d="M603.74528 697.09312m-28.01152 0a28.01152 28.01152 0 1 0 56.02304 0 28.01152 28.01152 0 1 0-56.02304 0Z" fill="#770000" p-id="1381"></path><path d="M787.51744 697.09312m-28.01152 0a28.01152 28.01152 0 1 0 56.02304 0 28.01152 28.01152 0 1 0-56.02304 0Z" fill="#770000" p-id="1382"></path></svg>